# xmcd
# Track frame offsets:
# 183
# 11725
# 22465
# 37993
# 49818
# 63245
# 78318
# 91668
# 103318
# 113473
# 124023
# 134913
# 153368
# 167693
# 182708
# 193475
#
# Disc length: 2767 seconds
# Revision: 0
# Processed by: cddbd v1.4PL0 Copyright (c) Steve Scherf et al.
# Submitted via: VisiTrax 2.9.3.171 - For more info visit www.synapsa.com
#
DISCID=db0acd10
DTITLE=Kenny Rogers - Me and Bobby McGee
DYEAR=1993
DGENRE=Country
TTITLE0=Me and Bobby McGee
TTITLE1=She even woke me up to say goodbye
TTITLE2=My Washington woman
TTITLE3=Elvira
TTITLE4=Shine on Ruby mountain
TTITLE5=Just dropped in (to see what condition my condition was in)
TTITLE6=Sleep comes easy
TTITLE7=A poem for my little lady
TTITLE8=Where does Rosie go
TTITLE9=Ticket to nowhere
TTITLE10=Good time liberator
TTITLE11=King of the road
TTITLE12=It's raining in my mind
TTITLE13=After all
TTITLE14=We all got to help each other
TTITLE15=Loser
EXTD=
EXTT0=
EXTT1=
EXTT2=
EXTT3=
EXTT4=
EXTT5=
EXTT6=
EXTT7=
EXTT8=
EXTT9=
EXTT10=
EXTT11=
EXTT12=
EXTT13=
EXTT14=
EXTT15=
PLAYORDER=
